{
  "asset": {
    "version": "2.0",
    "generator": "THREE.GLTFExporter"
  },
  "scenes": [
    {
      "name": "Scene",
      "nodes": [
        9
      ]
    }
  ],
  "scene": 0,
  "nodes": [
    {
      "matrix": [
        0.2474844604730606,
        0,
        0,
        0,
        0,
        1,
        0,
        0,
        0,
        0,
        0.7524654865264893,
        0,
        0,
        0.9850545525550842,
        3.5061886310577393,
        1
      ],
      "name": "Chockolat",
      "extras": {
        "name": "Chockolat"
      },
      "mesh": 0
    },
    {
      "matrix": [
        0.2474844604730606,
        0,
        0,
        0,
        0,
        1,
        0,
        0,
        0,
        0,
        0.7524654865264893,
        0,
        0,
        0.9850545525550842,
        3.5061886310577393,
        1
      ],
      "name": "Box2",
      "extras": {
        "name": "Box2"
      },
      "mesh": 1
    },
    {
      "matrix": [
        0.2474844604730606,
        0,
        0,
        0,
        0,
        1,
        0,
        0,
        0,
        0,
        0.7524654865264893,
        0,
        0,
        0.9850545525550842,
        3.5061886310577393,
        1
      ],
      "name": "Face2",
      "extras": {
        "name": "Face2"
      },
      "mesh": 2
    },
    {
      "matrix": [
        0.2474844604730606,
        0,
        0,
        0,
        0,
        1,
        0,
        0,
        0,
        0,
        0.7524654865264893,
        0,
        0,
        0.9850545525550842,
        3.5061886310577393,
        1
      ],
      "name": "Box3",
      "extras": {
        "name": "Box3"
      },
      "mesh": 3
    },
    {
      "matrix": [
        0.2474844604730606,
        0,
        0,
        0,
        0,
        1,
        0,
        0,
        0,
        0,
        0.7524654865264893,
        0,
        0,
        0.9850545525550842,
        3.5061886310577393,
        1
      ],
      "name": "Face3",
      "extras": {
        "name": "Face3"
      },
      "mesh": 4
    },
    {
      "matrix": [
        0.2474844604730606,
        0,
        0,
        0,
        0,
        1,
        0,
        0,
        0,
        0,
        0.7524654865264893,
        0,
        0,
        0.9850545525550842,
        3.5061886310577393,
        1
      ],
      "name": "Face4",
      "extras": {
        "name": "Face4"
      },
      "mesh": 5
    },
    {
      "matrix": [
        0.2474844604730606,
        0,
        0,
        0,
        0,
        1,
        0,
        0,
        0,
        0,
        0.7524654865264893,
        0,
        0,
        0.9850545525550842,
        3.5061886310577393,
        1
      ],
      "name": "Box4",
      "extras": {
        "name": "Box4"
      },
      "mesh": 6
    },
    {
      "matrix": [
        0.2474844604730606,
        0,
        0,
        0,
        0,
        1,
        0,
        0,
        0,
        0,
        0.7524654865264893,
        0,
        0,
        0.9850545525550842,
        3.5061886310577393,
        1
      ],
      "name": "Face5",
      "extras": {
        "name": "Face5"
      },
      "mesh": 7
    },
    {
      "matrix": [
        0.2474844604730606,
        0,
        0,
        0,
        0,
        1,
        0,
        0,
        0,
        0,
        0.7524654865264893,
        0,
        0,
        0.9850545525550842,
        3.5061886310577393,
        1
      ],
      "name": "Box5",
      "extras": {
        "name": "Box5"
      },
      "mesh": 8
    },
    {
      "name": "spinisad.gltf",
      "children": [
        0,
        1,
        2,
        3,
        4,
        5,
        6,
        7,
        8
      ]
    }
  ],
  "bufferViews": [
    {
      "buffer": 0,
      "byteOffset": 0,
      "byteLength": 288,
      "target": 34962,
      "byteStride": 12
    },
    {
      "buffer": 0,
      "byteOffset": 288,
      "byteLength": 288,
      "target": 34962,
      "byteStride": 12
    },
    {
      "buffer": 0,
      "byteOffset": 576,
      "byteLength": 192,
      "target": 34962,
      "byteStride": 8
    },
    {
      "buffer": 0,
      "byteOffset": 768,
      "byteLength": 72,
      "target": 34963
    },
    {
      "buffer": 0,
      "byteOffset": 840,
      "byteLength": 240,
      "target": 34962,
      "byteStride": 12
    },
    {
      "buffer": 0,
      "byteOffset": 1080,
      "byteLength": 240,
      "target": 34962,
      "byteStride": 12
    },
    {
      "buffer": 0,
      "byteOffset": 1320,
      "byteLength": 160,
      "target": 34962,
      "byteStride": 8
    },
    {
      "buffer": 0,
      "byteOffset": 1480,
      "byteLength": 60,
      "target": 34963
    },
    {
      "buffer": 0,
      "byteOffset": 1540,
      "byteLength": 48,
      "target": 34962,
      "byteStride": 12
    },
    {
      "buffer": 0,
      "byteOffset": 1588,
      "byteLength": 48,
      "target": 34962,
      "byteStride": 12
    },
    {
      "buffer": 0,
      "byteOffset": 1636,
      "byteLength": 32,
      "target": 34962,
      "byteStride": 8
    },
    {
      "buffer": 0,
      "byteOffset": 1668,
      "byteLength": 12,
      "target": 34963
    },
    {
      "buffer": 0,
      "byteOffset": 1680,
      "byteLength": 240,
      "target": 34962,
      "byteStride": 12
    },
    {
      "buffer": 0,
      "byteOffset": 1920,
      "byteLength": 240,
      "target": 34962,
      "byteStride": 12
    },
    {
      "buffer": 0,
      "byteOffset": 2160,
      "byteLength": 160,
      "target": 34962,
      "byteStride": 8
    },
    {
      "buffer": 0,
      "byteOffset": 2320,
      "byteLength": 48,
      "target": 34962,
      "byteStride": 12
    },
    {
      "buffer": 0,
      "byteOffset": 2368,
      "byteLength": 48,
      "target": 34962,
      "byteStride": 12
    },
    {
      "buffer": 0,
      "byteOffset": 2416,
      "byteLength": 32,
      "target": 34962,
      "byteStride": 8
    },
    {
      "buffer": 0,
      "byteOffset": 2448,
      "byteLength": 48,
      "target": 34962,
      "byteStride": 12
    },
    {
      "buffer": 0,
      "byteOffset": 2496,
      "byteLength": 48,
      "target": 34962,
      "byteStride": 12
    },
    {
      "buffer": 0,
      "byteOffset": 2544,
      "byteLength": 32,
      "target": 34962,
      "byteStride": 8
    },
    {
      "buffer": 0,
      "byteOffset": 2576,
      "byteLength": 240,
      "target": 34962,
      "byteStride": 12
    },
    {
      "buffer": 0,
      "byteOffset": 2816,
      "byteLength": 240,
      "target": 34962,
      "byteStride": 12
    },
    {
      "buffer": 0,
      "byteOffset": 3056,
      "byteLength": 160,
      "target": 34962,
      "byteStride": 8
    },
    {
      "buffer": 0,
      "byteOffset": 3216,
      "byteLength": 48,
      "target": 34962,
      "byteStride": 12
    },
    {
      "buffer": 0,
      "byteOffset": 3264,
      "byteLength": 48,
      "target": 34962,
      "byteStride": 12
    },
    {
      "buffer": 0,
      "byteOffset": 3312,
      "byteLength": 32,
      "target": 34962,
      "byteStride": 8
    },
    {
      "buffer": 0,
      "byteOffset": 3344,
      "byteLength": 240,
      "target": 34962,
      "byteStride": 12
    },
    {
      "buffer": 0,
      "byteOffset": 3584,
      "byteLength": 240,
      "target": 34962,
      "byteStride": 12
    },
    {
      "buffer": 0,
      "byteOffset": 3824,
      "byteLength": 160,
      "target": 34962,
      "byteStride": 8
    }
  ],
  "buffers": [
    {
      "byteLength": 3984,
      "uri": "data:application/octet-stream;base64,"
    }
  ],
  "accessors": [
    {
      "bufferView": 0,
      "componentType": 5126,
      "count": 24,
      "max": [
        1,
        1,
        1
      ],
      "min": [
        -1,
        -1,
        -1
      ],
      "type": "VEC3"
    },
    {
      "bufferView": 1,
      "componentType": 5126,
      "count": 24,
      "max": [
        1,
        1,
        1
      ],
      "min": [
        -1,
        -1,
        -1
      ],
      "type": "VEC3"
    },
    {
      "bufferView": 2,
      "componentType": 5126,
      "count": 24,
      "max": [
        1.0002212524414062,
        1.0049893856048584
      ],
      "min": [
        -0.0076097846031188965,
        -0.001216292381286621
      ],
      "type": "VEC2"
    },
    {
      "bufferView": 3,
      "componentType": 5123,
      "count": 36,
      "max": [
        23
      ],
      "min": [
        0
      ],
      "type": "SCALAR"
    },
    {
      "bufferView": 4,
      "componentType": 5126,
      "count": 20,
      "max": [
        1.0000001192092896,
        1,
        -1.3999998569488525
      ],
      "min": [
        -0.9999998807907104,
        -1,
        -3.3999998569488525
      ],
      "type": "VEC3"
    },
    {
      "bufferView": 5,
      "componentType": 5126,
      "count": 20,
      "max": [
        0,
        1,
        1
      ],
      "min": [
        -1,
        -1,
        -1
      ],
      "type": "VEC3"
    },
    {
      "bufferView": 6,
      "componentType": 5126,
      "count": 20,
      "max": [
        1.0002212524414062,
        1.0034537315368652
      ],
      "min": [
        0.0003032386302947998,
        -0.001216292381286621
      ],
      "type": "VEC2"
    },
    {
      "bufferView": 7,
      "componentType": 5123,
      "count": 30,
      "max": [
        19
      ],
      "min": [
        0
      ],
      "type": "SCALAR"
    },
    {
      "bufferView": 8,
      "componentType": 5126,
      "count": 4,
      "max": [
        1.0000001192092896,
        1,
        -1.3999998569488525
      ],
      "min": [
        1.0000001192092896,
        -1,
        -3.3999998569488525
      ],
      "type": "VEC3"
    },
    {
      "bufferView": 9,
      "componentType": 5126,
      "count": 4,
      "max": [
        1,
        0,
        0
      ],
      "min": [
        1,
        0,
        0
      ],
      "type": "VEC3"
    },
    {
      "bufferView": 10,
      "componentType": 5126,
      "count": 4,
      "max": [
        0.8648351430892944,
        1.0049893856048584
      ],
      "min": [
        -0.0076097846031188965,
        0.07474100589752197
      ],
      "type": "VEC2"
    },
    {
      "bufferView": 11,
      "componentType": 5123,
      "count": 6,
      "max": [
        3
      ],
      "min": [
        0
      ],
      "type": "SCALAR"
    },
    {
      "bufferView": 12,
      "componentType": 5126,
      "count": 20,
      "max": [
        1.000000238418579,
        1,
        -3.799999713897705
      ],
      "min": [
        -0.9999997615814209,
        -1,
        -5.799999713897705
      ],
      "type": "VEC3"
    },
    {
      "bufferView": 13,
      "componentType": 5126,
      "count": 20,
      "max": [
        0,
        1,
        1
      ],
      "min": [
        -1,
        -1,
        -1
      ],
      "type": "VEC3"
    },
    {
      "bufferView": 14,
      "componentType": 5126,
      "count": 20,
      "max": [
        1.0002212524414062,
        1.0034537315368652
      ],
      "min": [
        0.0003032386302947998,
        -0.001216292381286621
      ],
      "type": "VEC2"
    },
    {
      "bufferView": 15,
      "componentType": 5126,
      "count": 4,
      "max": [
        1.000000238418579,
        1,
        -3.799999713897705
      ],
      "min": [
        1.000000238418579,
        -1,
        -5.799999713897705
      ],
      "type": "VEC3"
    },
    {
      "bufferView": 16,
      "componentType": 5126,
      "count": 4,
      "max": [
        1,
        0,
        0
      ],
      "min": [
        1,
        0,
        0
      ],
      "type": "VEC3"
    },
    {
      "bufferView": 17,
      "componentType": 5126,
      "count": 4,
      "max": [
        0.8648351430892944,
        1.0049893856048584
      ],
      "min": [
        -0.0076097846031188965,
        0.07474100589752197
      ],
      "type": "VEC2"
    },
    {
      "bufferView": 18,
      "componentType": 5126,
      "count": 4,
      "max": [
        1.0000003576278687,
        1,
        -6.199999809265137
      ],
      "min": [
        1.0000003576278687,
        -1,
        -8.199999809265137
      ],
      "type": "VEC3"
    },
    {
      "bufferView": 19,
      "componentType": 5126,
      "count": 4,
      "max": [
        1,
        0,
        0
      ],
      "min": [
        1,
        0,
        0
      ],
      "type": "VEC3"
    },
    {
      "bufferView": 20,
      "componentType": 5126,
      "count": 4,
      "max": [
        0.8648351430892944,
        1.0049893856048584
      ],
      "min": [
        -0.0076097846031188965,
        0.07474100589752197
      ],
      "type": "VEC2"
    },
    {
      "bufferView": 21,
      "componentType": 5126,
      "count": 20,
      "max": [
        1.0000003576278687,
        1,
        -6.199999809265137
      ],
      "min": [
        -0.9999996423721313,
        -1,
        -8.199999809265137
      ],
      "type": "VEC3"
    },
    {
      "bufferView": 22,
      "componentType": 5126,
      "count": 20,
      "max": [
        0,
        1,
        1
      ],
      "min": [
        -1,
        -1,
        -1
      ],
      "type": "VEC3"
    },
    {
      "bufferView": 23,
      "componentType": 5126,
      "count": 20,
      "max": [
        1.0002212524414062,
        1.0034537315368652
      ],
      "min": [
        0.0003032386302947998,
        -0.001216292381286621
      ],
      "type": "VEC2"
    },
    {
      "bufferView": 24,
      "componentType": 5126,
      "count": 4,
      "max": [
        1.0000004768371582,
        1,
        -8.59999942779541
      ],
      "min": [
        1.0000004768371582,
        -1,
        -10.59999942779541
      ],
      "type": "VEC3"
    },
    {
      "bufferView": 25,
      "componentType": 5126,
      "count": 4,
      "max": [
        1,
        0,
        0
      ],
      "min": [
        1,
        0,
        0
      ],
      "type": "VEC3"
    },
    {
      "bufferView": 26,
      "componentType": 5126,
      "count": 4,
      "max": [
        0.8648351430892944,
        1.0049893856048584
      ],
      "min": [
        -0.0076097846031188965,
        0.07474100589752197
      ],
      "type": "VEC2"
    },
    {
      "bufferView": 27,
      "componentType": 5126,
      "count": 20,
      "max": [
        1.0000004768371582,
        1,
        -8.59999942779541
      ],
      "min": [
        -0.9999995231628418,
        -1,
        -10.59999942779541
      ],
      "type": "VEC3"
    },
    {
      "bufferView": 28,
      "componentType": 5126,
      "count": 20,
      "max": [
        0,
        1,
        1
      ],
      "min": [
        -1,
        -1,
        -1
      ],
      "type": "VEC3"
    },
    {
      "bufferView": 29,
      "componentType": 5126,
      "count": 20,
      "max": [
        1.0002212524414062,
        1.0034537315368652
      ],
      "min": [
        0.0003032386302947998,
        -0.001216292381286621
      ],
      "type": "VEC2"
    }
  ],
  "materials": [
    {
      "pbrMetallicRoughness": {
        "metallicFactor": 0,
        "roughnessFactor": 0.21830984950065613,
        "baseColorTexture": {
          "index": 0,
          "texCoord": 0
        }
      },
      "doubleSided": true,
      "name": "1A",
      "extensions": {
        "KHR_materials_ior": {
          "ior": 1.4500000476837158
        },
        "KHR_materials_specular": {
          "specularFactor": 1,
          "specularColorFactor": [
            0.8850842298069753,
            0.8850842298069753,
            0.8850842298069753
          ]
        }
      }
    },
    {
      "pbrMetallicRoughness": {
        "metallicFactor": 0,
        "roughnessFactor": 0.14788733422756195,
        "baseColorTexture": {
          "index": 1,
          "texCoord": 0
        }
      },
      "doubleSided": true,
      "name": "2A",
      "extensions": {
        "KHR_materials_ior": {
          "ior": 1.4500000476837158
        },
        "KHR_materials_specular": {
          "specularFactor": 1,
          "specularColorFactor": [
            1.2023784509988227,
            1.2023784509988227,
            1.2023784509988227
          ]
        }
      }
    },
    {
      "pbrMetallicRoughness": {
        "metallicFactor": 0,
        "roughnessFactor": 0.1690140962600708,
        "baseColorTexture": {
          "index": 2,
          "texCoord": 0
        }
      },
      "doubleSided": true,
      "name": "Материал"
    },
    {
      "pbrMetallicRoughness": {
        "metallicFactor": 0,
        "roughnessFactor": 0.14788731932640076,
        "baseColorTexture": {
          "index": 3,
          "texCoord": 0
        }
      },
      "doubleSided": true,
      "name": "Face4"
    },
    {
      "pbrMetallicRoughness": {
        "metallicFactor": 0,
        "roughnessFactor": 0.15492957830429077,
        "baseColorTexture": {
          "index": 4,
          "texCoord": 0
        }
      },
      "doubleSided": true,
      "name": "Face5"
    }
  ],
  "textures": [
    {
      "sampler": 0,
      "source": 0,
      "name": "1A"
    },
    {
      "sampler": 1,
      "source": 1,
      "name": "2A"
    },
    {
      "sampler": 2,
      "source": 2,
      "name": "3F"
    },
    {
      "sampler": 3,
      "source": 3,
      "name": "4F"
    },
    {
      "sampler": 4,
      "source": 4,
      "name": "5F"
    }
  ],
  "samplers": [
    {
      "magFilter": 9729,
      "minFilter": 9987,
      "wrapS": 10497,
      "wrapT": 10497
    },
    {
      "magFilter": 9729,
      "minFilter": 9987,
      "wrapS": 10497,
      "wrapT": 10497
    },
    {
      "magFilter": 9729,
      "minFilter": 9987,
      "wrapS": 10497,
      "wrapT": 10497
    },
    {
      "magFilter": 9729,
      "minFilter": 9987,
      "wrapS": 10497,
      "wrapT": 10497
    },
    {
      "magFilter": 9729,
      "minFilter": 9987,
      "wrapS": 10497,
      "wrapT": 10497
    }
  ],
  "images": [
    {
      "mimeType": "image/png",
      "uri": "data:image/png;base64,"
    },
    {
      "mimeType": "image/png",
      "uri": "data:image/png;base64,"
    },
    {
      "mimeType": "image/png",
      "uri": "data:image/png;base64,"
    },
    {
      "mimeType": "image/png",
      "uri": "data:image/png;base64,"
    },
    {
      "mimeType": "image/png",
      "uri": "data:image/png;base64,"
    }
  ],
  "meshes": [
    {
      "primitives": [
        {
          "mode": 4,
          "attributes": {
            "POSITION": 0,
            "NORMAL": 1,
            "TEXCOORD_0": 2
          },
          "indices": 3,
          "material": 0
        }
      ]
    },
    {
      "primitives": [
        {
          "mode": 4,
          "attributes": {
            "POSITION": 4,
            "NORMAL": 5,
            "TEXCOORD_0": 6
          },
          "indices": 7,
          "material": 0
        }
      ]
    },
    {
      "primitives": [
        {
          "mode": 4,
          "attributes": {
            "POSITION": 8,
            "NORMAL": 9,
            "TEXCOORD_0": 10
          },
          "indices": 11,
          "material": 1
        }
      ]
    },
    {
      "primitives": [
        {
          "mode": 4,
          "attributes": {
            "POSITION": 12,
            "NORMAL": 13,
            "TEXCOORD_0": 14
          },
          "indices": 7,
          "material": 0
        }
      ]
    },
    {
      "primitives": [
        {
          "mode": 4,
          "attributes": {
            "POSITION": 15,
            "NORMAL": 16,
            "TEXCOORD_0": 17
          },
          "indices": 11,
          "material": 2
        }
      ]
    },
    {
      "primitives": [
        {
          "mode": 4,
          "attributes": {
            "POSITION": 18,
            "NORMAL": 19,
            "TEXCOORD_0": 20
          },
          "indices": 11,
          "material": 3
        }
      ]
    },
    {
      "primitives": [
        {
          "mode": 4,
          "attributes": {
            "POSITION": 21,
            "NORMAL": 22,
            "TEXCOORD_0": 23
          },
          "indices": 7,
          "material": 0
        }
      ]
    },
    {
      "primitives": [
        {
          "mode": 4,
          "attributes": {
            "POSITION": 24,
            "NORMAL": 25,
            "TEXCOORD_0": 26
          },
          "indices": 11,
          "material": 4
        }
      ]
    },
    {
      "primitives": [
        {
          "mode": 4,
          "attributes": {
            "POSITION": 27,
            "NORMAL": 28,
            "TEXCOORD_0": 29
          },
          "indices": 7,
          "material": 0
        }
      ]
    }
  ],
  "extensionsUsed": [
    "KHR_materials_ior",
    "KHR_materials_specular"
  ]
}