{
	"asset":{
		"generator":"Khronos glTF Blender I/O v3.6.28",
		"version":"2.0"
	},
	"extensionsUsed":[
		"KHR_lights_punctual",
		"KHR_materials_specular",
		"KHR_materials_ior"
	],
	"extensionsRequired":[
		"KHR_lights_punctual"
	],
	"extensions":{
		"KHR_lights_punctual":{
			"lights":[
				{
					"color":[
						1,
						1,
						1
					],
					"intensity":10207.19471030329,
					"type":"point",
					"name":"\u0422\u043e\u0447\u0435\u0447\u043d\u044b\u0439 \u0438\u0441\u0442\u043e\u0447\u043d\u0438\u043a"
				}
			]
		}
	},
	"scene":0,
	"scenes":[
		{
			"name":"Scene",
			"nodes":[
				0,
				1,
				2,
				3,
				4,
				5,
				6,
				7,
				8,
				9,
				10
			]
		}
	],
	"nodes":[
		{
			"extensions":{
				"KHR_lights_punctual":{
					"light":0
				}
			},
			"name":"\u0422\u043e\u0447\u0435\u0447\u043d\u044b\u0439 \u0438\u0441\u0442\u043e\u0447\u043d\u0438\u043a",
			"rotation":[
				-0.7071068286895752,
				0,
				0,
				0.7071068286895752
			],
			"translation":[
				3.6748733520507812,
				3.8576016426086426,
				0.06114983558654785
			]
		},
		{
			"mesh":0,
			"name":"Chockolat",
			"scale":[
				0.2474844604730606,
				1,
				0.7524654865264893
			],
			"translation":[
				0,
				0.9850545525550842,
				3.5061886310577393
			]
		},
		{
			"camera":0,
			"name":"Camera",
			"rotation":[
				-0.20997299253940582,
				0.3857799470424652,
				0.09062844514846802,
				0.8937962055206299
			],
			"translation":[
				7.358891487121582,
				4.958309173583984,
				6.925790786743164
			]
		},
		{
			"mesh":1,
			"name":"Box2",
			"scale":[
				0.2474844604730606,
				1,
				0.7524654865264893
			],
			"translation":[
				0,
				0.9850545525550842,
				3.5061886310577393
			]
		},
		{
			"mesh":2,
			"name":"Face2",
			"scale":[
				0.2474844604730606,
				1,
				0.7524654865264893
			],
			"translation":[
				0,
				0.9850545525550842,
				3.5061886310577393
			]
		},
		{
			"mesh":3,
			"name":"Box3",
			"scale":[
				0.2474844604730606,
				1,
				0.7524654865264893
			],
			"translation":[
				0,
				0.9850545525550842,
				3.5061886310577393
			]
		},
		{
			"mesh":4,
			"name":"Face3",
			"scale":[
				0.2474844604730606,
				1,
				0.7524654865264893
			],
			"translation":[
				0,
				0.9850545525550842,
				3.5061886310577393
			]
		},
		{
			"mesh":5,
			"name":"Face4",
			"scale":[
				0.2474844604730606,
				1,
				0.7524654865264893
			],
			"translation":[
				0,
				0.9850545525550842,
				3.5061886310577393
			]
		},
		{
			"mesh":6,
			"name":"Box4",
			"scale":[
				0.2474844604730606,
				1,
				0.7524654865264893
			],
			"translation":[
				0,
				0.9850545525550842,
				3.5061886310577393
			]
		},
		{
			"mesh":7,
			"name":"Face5",
			"scale":[
				0.2474844604730606,
				1,
				0.7524654865264893
			],
			"translation":[
				0,
				0.9850545525550842,
				3.5061886310577393
			]
		},
		{
			"mesh":8,
			"name":"Box5",
			"scale":[
				0.2474844604730606,
				1,
				0.7524654865264893
			],
			"translation":[
				0,
				0.9850545525550842,
				3.5061886310577393
			]
		}
	],
	"cameras":[
		{
			"name":"Camera",
			"perspective":{
				"aspectRatio":1.7777777777777777,
				"yfov":0.39959648408210363,
				"zfar":100,
				"znear":0.10000000149011612
			},
			"type":"perspective"
		}
	],
	"materials":[
		{
			"doubleSided":true,
			"extensions":{
				"KHR_materials_specular":{
					"specularColorFactor":[
						0.8850842298069753,
						0.8850842298069753,
						0.8850842298069753
					]
				},
				"KHR_materials_ior":{
					"ior":1.4500000476837158
				}
			},
			"name":"1A",
			"pbrMetallicRoughness":{
				"baseColorTexture":{
					"index":0
				},
				"metallicFactor":0,
				"roughnessFactor":0.21830984950065613
			}
		},
		{
			"doubleSided":true,
			"extensions":{
				"KHR_materials_specular":{
					"specularColorFactor":[
						1.2023784509988227,
						1.2023784509988227,
						1.2023784509988227
					]
				},
				"KHR_materials_ior":{
					"ior":1.4500000476837158
				}
			},
			"name":"2A",
			"pbrMetallicRoughness":{
				"baseColorTexture":{
					"index":1
				},
				"metallicFactor":0,
				"roughnessFactor":0.14788733422756195
			}
		},
		{
			"doubleSided":true,
			"name":"\u041c\u0430\u0442\u0435\u0440\u0438\u0430\u043b",
			"pbrMetallicRoughness":{
				"baseColorTexture":{
					"index":2
				},
				"metallicFactor":0,
				"roughnessFactor":0.1690140962600708
			}
		},
		{
			"doubleSided":true,
			"name":"Face4",
			"pbrMetallicRoughness":{
				"baseColorTexture":{
					"index":3
				},
				"metallicFactor":0,
				"roughnessFactor":0.14788731932640076
			}
		},
		{
			"doubleSided":true,
			"name":"Face5",
			"pbrMetallicRoughness":{
				"baseColorTexture":{
					"index":4
				},
				"metallicFactor":0,
				"roughnessFactor":0.15492957830429077
			}
		}
	],
	"meshes":[
		{
			"name":"Cube",
			"primitives":[
				{
					"attributes":{
						"POSITION":0,
						"NORMAL":1,
						"TEXCOORD_0":2
					},
					"indices":3,
					"material":0
				}
			]
		},
		{
			"name":"Cube.001",
			"primitives":[
				{
					"attributes":{
						"POSITION":4,
						"NORMAL":5,
						"TEXCOORD_0":6
					},
					"indices":7,
					"material":0
				}
			]
		},
		{
			"name":"Face2Shade",
			"primitives":[
				{
					"attributes":{
						"POSITION":8,
						"NORMAL":9,
						"TEXCOORD_0":10
					},
					"indices":11,
					"material":1
				}
			]
		},
		{
			"name":"Cube.002",
			"primitives":[
				{
					"attributes":{
						"POSITION":12,
						"NORMAL":13,
						"TEXCOORD_0":14
					},
					"indices":7,
					"material":0
				}
			]
		},
		{
			"name":"Cube.006",
			"primitives":[
				{
					"attributes":{
						"POSITION":15,
						"NORMAL":16,
						"TEXCOORD_0":17
					},
					"indices":11,
					"material":2
				}
			]
		},
		{
			"name":"Cube.005",
			"primitives":[
				{
					"attributes":{
						"POSITION":18,
						"NORMAL":19,
						"TEXCOORD_0":20
					},
					"indices":11,
					"material":3
				}
			]
		},
		{
			"name":"Cube.003",
			"primitives":[
				{
					"attributes":{
						"POSITION":21,
						"NORMAL":22,
						"TEXCOORD_0":23
					},
					"indices":7,
					"material":0
				}
			]
		},
		{
			"name":"Cube.007",
			"primitives":[
				{
					"attributes":{
						"POSITION":24,
						"NORMAL":25,
						"TEXCOORD_0":26
					},
					"indices":11,
					"material":4
				}
			]
		},
		{
			"name":"Cube.004",
			"primitives":[
				{
					"attributes":{
						"POSITION":27,
						"NORMAL":28,
						"TEXCOORD_0":29
					},
					"indices":7,
					"material":0
				}
			]
		}
	],
	"textures":[
		{
			"sampler":0,
			"source":0
		},
		{
			"sampler":0,
			"source":1
		},
		{
			"sampler":0,
			"source":2
		},
		{
			"sampler":0,
			"source":3
		},
		{
			"sampler":0,
			"source":4
		}
	],
	"images":[
		{
			"bufferView":4,
			"mimeType":"image/png",
			"name":"1A"
		},
		{
			"bufferView":13,
			"mimeType":"image/png",
			"name":"2A"
		},
		{
			"bufferView":20,
			"mimeType":"image/png",
			"name":"3F"
		},
		{
			"bufferView":24,
			"mimeType":"image/png",
			"name":"4F"
		},
		{
			"bufferView":31,
			"mimeType":"image/png",
			"name":"5F"
		}
	],
	"accessors":[
		{
			"bufferView":0,
			"componentType":5126,
			"count":24,
			"max":[
				1,
				1,
				1
			],
			"min":[
				-1,
				-1,
				-1
			],
			"type":"VEC3"
		},
		{
			"bufferView":1,
			"componentType":5126,
			"count":24,
			"type":"VEC3"
		},
		{
			"bufferView":2,
			"componentType":5126,
			"count":24,
			"type":"VEC2"
		},
		{
			"bufferView":3,
			"componentType":5123,
			"count":36,
			"type":"SCALAR"
		},
		{
			"bufferView":5,
			"componentType":5126,
			"count":20,
			"max":[
				1.0000001192092896,
				1,
				-1.3999998569488525
			],
			"min":[
				-0.9999998807907104,
				-1,
				-3.3999998569488525
			],
			"type":"VEC3"
		},
		{
			"bufferView":6,
			"componentType":5126,
			"count":20,
			"type":"VEC3"
		},
		{
			"bufferView":7,
			"componentType":5126,
			"count":20,
			"type":"VEC2"
		},
		{
			"bufferView":8,
			"componentType":5123,
			"count":30,
			"type":"SCALAR"
		},
		{
			"bufferView":9,
			"componentType":5126,
			"count":4,
			"max":[
				1.0000001192092896,
				1,
				-1.3999998569488525
			],
			"min":[
				1.0000001192092896,
				-1,
				-3.3999998569488525
			],
			"type":"VEC3"
		},
		{
			"bufferView":10,
			"componentType":5126,
			"count":4,
			"type":"VEC3"
		},
		{
			"bufferView":11,
			"componentType":5126,
			"count":4,
			"type":"VEC2"
		},
		{
			"bufferView":12,
			"componentType":5123,
			"count":6,
			"type":"SCALAR"
		},
		{
			"bufferView":14,
			"componentType":5126,
			"count":20,
			"max":[
				1.000000238418579,
				1,
				-3.799999713897705
			],
			"min":[
				-0.9999997615814209,
				-1,
				-5.799999713897705
			],
			"type":"VEC3"
		},
		{
			"bufferView":15,
			"componentType":5126,
			"count":20,
			"type":"VEC3"
		},
		{
			"bufferView":16,
			"componentType":5126,
			"count":20,
			"type":"VEC2"
		},
		{
			"bufferView":17,
			"componentType":5126,
			"count":4,
			"max":[
				1.000000238418579,
				1,
				-3.799999713897705
			],
			"min":[
				1.000000238418579,
				-1,
				-5.799999713897705
			],
			"type":"VEC3"
		},
		{
			"bufferView":18,
			"componentType":5126,
			"count":4,
			"type":"VEC3"
		},
		{
			"bufferView":19,
			"componentType":5126,
			"count":4,
			"type":"VEC2"
		},
		{
			"bufferView":21,
			"componentType":5126,
			"count":4,
			"max":[
				1.0000003576278687,
				1,
				-6.199999809265137
			],
			"min":[
				1.0000003576278687,
				-1,
				-8.199999809265137
			],
			"type":"VEC3"
		},
		{
			"bufferView":22,
			"componentType":5126,
			"count":4,
			"type":"VEC3"
		},
		{
			"bufferView":23,
			"componentType":5126,
			"count":4,
			"type":"VEC2"
		},
		{
			"bufferView":25,
			"componentType":5126,
			"count":20,
			"max":[
				1.0000003576278687,
				1,
				-6.199999809265137
			],
			"min":[
				-0.9999996423721313,
				-1,
				-8.199999809265137
			],
			"type":"VEC3"
		},
		{
			"bufferView":26,
			"componentType":5126,
			"count":20,
			"type":"VEC3"
		},
		{
			"bufferView":27,
			"componentType":5126,
			"count":20,
			"type":"VEC2"
		},
		{
			"bufferView":28,
			"componentType":5126,
			"count":4,
			"max":[
				1.0000004768371582,
				1,
				-8.59999942779541
			],
			"min":[
				1.0000004768371582,
				-1,
				-10.59999942779541
			],
			"type":"VEC3"
		},
		{
			"bufferView":29,
			"componentType":5126,
			"count":4,
			"type":"VEC3"
		},
		{
			"bufferView":30,
			"componentType":5126,
			"count":4,
			"type":"VEC2"
		},
		{
			"bufferView":32,
			"componentType":5126,
			"count":20,
			"max":[
				1.0000004768371582,
				1,
				-8.59999942779541
			],
			"min":[
				-0.9999995231628418,
				-1,
				-10.59999942779541
			],
			"type":"VEC3"
		},
		{
			"bufferView":33,
			"componentType":5126,
			"count":20,
			"type":"VEC3"
		},
		{
			"bufferView":34,
			"componentType":5126,
			"count":20,
			"type":"VEC2"
		}
	],
	"bufferViews":[
		{
			"buffer":0,
			"byteLength":288,
			"byteOffset":0,
			"target":34962
		},
		{
			"buffer":0,
			"byteLength":288,
			"byteOffset":288,
			"target":34962
		},
		{
			"buffer":0,
			"byteLength":192,
			"byteOffset":576,
			"target":34962
		},
		{
			"buffer":0,
			"byteLength":72,
			"byteOffset":768,
			"target":34963
		},
		{
			"buffer":0,
			"byteLength":517530,
			"byteOffset":840
		},
		{
			"buffer":0,
			"byteLength":240,
			"byteOffset":518372,
			"target":34962
		},
		{
			"buffer":0,
			"byteLength":240,
			"byteOffset":518612,
			"target":34962
		},
		{
			"buffer":0,
			"byteLength":160,
			"byteOffset":518852,
			"target":34962
		},
		{
			"buffer":0,
			"byteLength":60,
			"byteOffset":519012,
			"target":34963
		},
		{
			"buffer":0,
			"byteLength":48,
			"byteOffset":519072,
			"target":34962
		},
		{
			"buffer":0,
			"byteLength":48,
			"byteOffset":519120,
			"target":34962
		},
		{
			"buffer":0,
			"byteLength":32,
			"byteOffset":519168,
			"target":34962
		},
		{
			"buffer":0,
			"byteLength":12,
			"byteOffset":519200,
			"target":34963
		},
		{
			"buffer":0,
			"byteLength":599725,
			"byteOffset":519212
		},
		{
			"buffer":0,
			"byteLength":240,
			"byteOffset":1118940,
			"target":34962
		},
		{
			"buffer":0,
			"byteLength":240,
			"byteOffset":1119180,
			"target":34962
		},
		{
			"buffer":0,
			"byteLength":160,
			"byteOffset":1119420,
			"target":34962
		},
		{
			"buffer":0,
			"byteLength":48,
			"byteOffset":1119580,
			"target":34962
		},
		{
			"buffer":0,
			"byteLength":48,
			"byteOffset":1119628,
			"target":34962
		},
		{
			"buffer":0,
			"byteLength":32,
			"byteOffset":1119676,
			"target":34962
		},
		{
			"buffer":0,
			"byteLength":335436,
			"byteOffset":1119708
		},
		{
			"buffer":0,
			"byteLength":48,
			"byteOffset":1455144,
			"target":34962
		},
		{
			"buffer":0,
			"byteLength":48,
			"byteOffset":1455192,
			"target":34962
		},
		{
			"buffer":0,
			"byteLength":32,
			"byteOffset":1455240,
			"target":34962
		},
		{
			"buffer":0,
			"byteLength":404219,
			"byteOffset":1455272
		},
		{
			"buffer":0,
			"byteLength":240,
			"byteOffset":1859492,
			"target":34962
		},
		{
			"buffer":0,
			"byteLength":240,
			"byteOffset":1859732,
			"target":34962
		},
		{
			"buffer":0,
			"byteLength":160,
			"byteOffset":1859972,
			"target":34962
		},
		{
			"buffer":0,
			"byteLength":48,
			"byteOffset":1860132,
			"target":34962
		},
		{
			"buffer":0,
			"byteLength":48,
			"byteOffset":1860180,
			"target":34962
		},
		{
			"buffer":0,
			"byteLength":32,
			"byteOffset":1860228,
			"target":34962
		},
		{
			"buffer":0,
			"byteLength":324607,
			"byteOffset":1860260
		},
		{
			"buffer":0,
			"byteLength":240,
			"byteOffset":2184868,
			"target":34962
		},
		{
			"buffer":0,
			"byteLength":240,
			"byteOffset":2185108,
			"target":34962
		},
		{
			"buffer":0,
			"byteLength":160,
			"byteOffset":2185348,
			"target":34962
		}
	],
	"samplers":[
		{
			"magFilter":9729,
			"minFilter":9987
		}
	],
	"buffers":[
		{
			"byteLength":2185508,
			"uri":"data:application/octet-stream;base64,"
		}
	]
}
